<svg width="33" height="32" viewBox="0 0 33 32" fill="none" xmlns="http://www.w3.org/2000/svg">
<path d="M16.4376 9.53485C17.8335 9.64839 19.2295 8.85364 20.1019 7.84601C20.9598 6.81 21.5269 5.41919 21.3815 4C20.1455 4.05677 18.6187 4.79475 17.7463 5.83076C16.9465 6.72485 16.2631 8.17243 16.4376 9.53485Z" fill="white"/>
<path d="M16.6557 10.9257C17.6154 10.9257 19.3458 9.69096 21.367 9.8045C22.1522 9.86127 24.4206 10.0883 25.8747 12.1887C25.7584 12.2739 23.1846 13.7215 23.2137 16.7585C23.2428 20.3917 26.4709 21.598 26.5 21.6264C26.4709 21.7115 25.9911 23.3436 24.8132 25.0182C23.7808 26.4942 22.7193 27.9418 21.0326 27.9702C19.404 27.9985 18.8659 27.0193 16.9901 27.0193C15.1289 27.0193 14.5181 27.9418 12.9768 27.9985C11.3482 28.0553 10.1122 26.4374 9.07978 24.9615C6.97133 21.9812 5.35727 16.5599 7.53843 12.8983C8.59993 11.0676 10.5339 9.91803 12.6133 9.88965C14.2128 9.86127 15.6814 10.9257 16.6557 10.9257Z" fill="white"/>
</svg>
