<svg width="33" height="32" viewBox="0 0 33 32" fill="none" xmlns="http://www.w3.org/2000/svg">
<path fill-rule="evenodd" clip-rule="evenodd" d="M21.0652 11.02C20.2546 10.2582 18.8328 9.34642 16.7251 9.34642C13.7568 9.34642 11.2376 11.3073 10.3271 14.0176L6.69787 11.1949C8.54367 7.52292 12.3351 5 16.7251 5C19.7557 5 22.2875 6.11158 24.233 7.92259L21.0652 11.02ZM27.263 14.1932C27.4251 14.8927 27.5 15.5671 27.5 16.4913C27.5 19.9135 26.2777 22.7986 24.1576 24.7595L24.1568 24.7589C22.2986 26.482 19.7547 27.4809 16.7245 27.4809C12.3345 27.4809 8.55557 24.9579 6.70976 21.286L9.84647 18.8464L6.69728 21.2873C5.93651 19.7635 5.5 18.0524 5.5 16.2414C5.5 14.4304 5.93651 12.7193 6.69728 11.1956L10.3265 14.0183C10.102 14.7177 9.96486 15.4671 9.96486 16.2414C9.96486 17.0154 10.1019 17.7644 10.3387 18.4636L10.339 18.4633C11.237 21.1736 13.7563 23.1344 16.7245 23.1344C18.3957 23.1344 19.6678 22.6723 20.6157 22.0104L20.6166 22.0111C22.1125 20.962 22.7857 19.4012 22.9104 18.3648H16.7244V14.1932H27.263Z" fill="white"/>
</svg>
