<svg width="33" height="32" viewBox="0 0 33 32" fill="none" xmlns="http://www.w3.org/2000/svg">
<path d="M18.1705 21.8576C16.6056 21.7352 15.948 20.9504 14.7207 20.1969C14.0462 23.7763 13.2218 27.2075 10.7801 29C10.0255 23.5901 11.8864 19.5266 12.7506 15.2135C11.2775 12.7056 12.9277 7.65767 16.0347 8.90155C19.8587 10.4309 12.724 18.2268 17.5137 19.2004C22.5141 20.217 24.5555 10.4253 21.4543 7.24043C16.9739 2.6422 8.41254 7.13593 9.46532 13.7185C9.72178 15.3277 11.3661 15.8162 10.1221 18.0368C7.2546 17.3945 6.39925 15.1072 6.50921 12.0577C6.6867 7.06614 10.9439 3.5711 15.2141 3.08743C20.6145 2.47612 25.6831 5.09302 26.3828 10.2305C27.1699 16.029 23.9447 22.3085 18.1705 21.8576Z" fill="white"/>
</svg>
