<svg width="24" height="24" viewBox="0 0 24 24" fill="none" xmlns="http://www.w3.org/2000/svg">
<path d="M15.5499 20.566C15.3472 21.044 15.5677 21.5921 16.0426 21.7903C16.5174 21.9885 17.0667 21.7616 17.2695 21.2836C17.9685 19.6356 18.955 18.0833 19.9697 16.4864C20.0303 16.3912 20.0909 16.2958 20.1516 16.2002C20.5001 15.651 20.8855 15.0829 21.2814 14.4993L21.2816 14.4991C22.1285 13.2508 23.0233 11.9317 23.7079 10.5764L23.7103 10.5723C23.7207 10.5548 23.7369 10.5273 23.7549 10.4959C23.7887 10.4369 23.844 10.3374 23.8901 10.2301C23.9126 10.1777 23.9447 10.0969 23.9678 10.0016C23.9832 9.93856 24.0362 9.71606 23.9594 9.45612C23.9141 9.30281 23.8177 9.11908 23.6338 8.97442C23.4514 8.83096 23.2537 8.78156 23.1012 8.77163C22.8399 8.7546 22.6356 8.84687 22.5643 8.88034C21.5286 9.36613 20.552 10.1353 19.71 10.7984C19.4453 11.0069 19.1939 11.2049 18.9581 11.3803C15.6749 13.8233 12.2512 16.0496 8.77342 18.2465C9.99354 16.3173 11.2972 14.4453 12.6653 12.5849C13.1906 11.8708 13.7137 11.1399 14.2072 10.3786C14.2296 10.3439 14.2574 10.3028 14.2888 10.2562C14.4498 10.0175 14.7074 9.63556 14.8496 9.24248C14.8688 9.18926 14.9009 9.09058 14.912 8.96677C14.9215 8.8608 14.9299 8.58344 14.7353 8.3149C14.5077 8.00086 14.1775 7.92817 13.9771 7.92675C13.8006 7.9255 13.6645 7.97338 13.6074 7.99528C13.4166 8.06847 13.2441 8.20394 13.1818 8.25285L13.1751 8.25805C13.0796 8.33284 12.9782 8.41916 12.899 8.48681L12.8781 8.5047L12.878 8.50475C12.8 8.57147 12.7512 8.61311 12.7202 8.63756C12.3521 8.92743 11.9963 9.21462 11.6461 9.49725C10.7421 10.2269 9.87576 10.9261 8.93255 11.5628C7.89887 12.2604 6.84583 12.8913 5.74745 13.404C5.90305 12.904 6.06817 12.4174 6.25702 11.9423C6.74774 10.7076 7.40392 9.57979 8.10994 8.36629C8.18868 8.23096 8.26805 8.09453 8.34787 7.95679C8.38092 7.89976 8.44318 7.79094 8.48567 7.67128C8.50293 7.62267 8.55717 7.46682 8.54548 7.267C8.53892 7.15478 8.50956 6.99254 8.40854 6.82684C8.30109 6.65062 8.14633 6.52633 7.98011 6.45453C7.69893 6.33306 7.44834 6.38682 7.39003 6.39933L7.38971 6.3994C7.29762 6.41916 7.22337 6.44831 7.18557 6.46389C7.10745 6.49611 7.02716 6.53768 6.97632 6.56409C6.51287 6.80488 6.02555 7.10113 5.57505 7.37499C5.32548 7.52671 5.08719 7.67157 4.87054 7.79631C4.24292 8.15768 3.65198 8.49024 3.0486 8.75245C3.15524 8.13538 3.29933 7.52007 3.46654 6.89727C3.82507 5.56187 4.01595 4.31736 3.99974 2.9162C3.99375 2.39887 3.57037 1.98878 3.05408 2.00023C2.5378 2.01169 2.12413 2.44036 2.13011 2.95769C2.14399 4.15736 1.98349 5.22838 1.66135 6.42822C1.46761 7.14983 1.29606 7.88801 1.17391 8.64597C1.16954 8.67313 1.15812 8.72378 1.13141 8.84218L1.13132 8.84258L1.12908 8.85254C1.10494 8.95957 1.07357 9.10074 1.04852 9.24729C1.02415 9.38989 1.0001 9.56881 1 9.75095C0.999916 9.90753 1.01489 10.2011 1.17654 10.4805C1.38276 10.8369 1.72072 10.9392 1.88271 10.9689C2.05271 11.0001 2.20527 10.9876 2.29771 10.9759C2.49095 10.9515 2.68618 10.8935 2.82804 10.8465C3.10915 10.7533 3.43801 10.611 3.42945 10.6144C4.05808 10.3674 4.65284 10.059 5.21107 9.74747C4.96249 10.2381 4.72851 10.7426 4.521 11.2647C4.19584 12.0829 3.94122 12.9116 3.7073 13.7177C3.69512 13.7597 3.67769 13.8115 3.65065 13.8898L3.64324 13.9113C3.61976 13.9792 3.59032 14.0643 3.56327 14.1508C3.50771 14.3285 3.42783 14.6132 3.43533 14.9202C3.43961 15.0955 3.49289 15.3375 3.68127 15.5484C3.86521 15.7543 4.08843 15.83 4.23759 15.8562C4.48415 15.8995 4.69361 15.8379 4.74957 15.8214L4.75256 15.8205C4.83922 15.7951 4.91677 15.7634 4.95767 15.7464C4.96712 15.7425 4.97803 15.7379 4.98787 15.7337C4.99884 15.7291 5.0085 15.725 5.01337 15.723C5.02159 15.7195 5.02586 15.7178 5.02745 15.7171L5.02811 15.7169C5.10893 15.6863 5.18157 15.6592 5.25027 15.6335L5.25036 15.6335C5.50109 15.5399 5.69956 15.4659 6.05335 15.3123C7.4461 14.7079 8.74094 13.9402 9.96569 13.1136C9.9782 13.1051 9.9907 13.0967 10.0032 13.0882C8.44995 15.2724 6.97989 17.5042 5.62883 19.8495C5.59534 19.9076 5.48173 20.1247 5.39128 20.3032C5.34396 20.3966 5.29417 20.4968 5.25734 20.5759C5.24138 20.6102 5.21672 20.6642 5.19662 20.7176L5.19615 20.7188C5.19136 20.7312 5.15682 20.8206 5.1405 20.9307C5.13535 20.9654 5.12658 21.036 5.1317 21.125C5.13558 21.1924 5.15269 21.4027 5.30351 21.6137C5.50522 21.8958 5.82701 22.0197 6.12577 21.9975C6.35105 21.9807 6.50732 21.887 6.55816 21.855C6.77256 21.7204 6.98468 21.5835 7.19106 21.4503L7.19155 21.45L7.19833 21.4456C7.4087 21.3099 7.61322 21.1779 7.81837 21.0492C11.9563 18.4535 16.1038 15.8262 20.0625 12.8806C20.0821 12.866 20.1016 12.8514 20.1211 12.8369C20.1456 12.8185 20.1701 12.8001 20.1944 12.7818C20.0747 12.9591 19.9538 13.1369 19.8322 13.3159L19.8314 13.3171C19.4171 13.9267 18.994 14.5493 18.577 15.2064C18.51 15.3119 18.4426 15.418 18.3748 15.5245C17.3793 17.0902 16.3128 18.7676 15.5499 20.566Z" fill="white"/>
</svg>
