<svg width="24" height="25" viewBox="0 0 24 25" fill="none" xmlns="http://www.w3.org/2000/svg">
<path d="M23.1843 11.9414C23.1561 11.8664 22.3593 10.1039 20.5968 8.332C18.2436 5.98825 15.2718 4.74138 11.9999 4.74138C11.3089 4.74012 10.619 4.79657 9.93739 4.91013C9.80569 4.9348 9.68287 4.99389 9.58139 5.08138C9.4799 5.16888 9.40338 5.28167 9.35958 5.4083C9.31579 5.53493 9.30627 5.67089 9.33201 5.80239C9.35776 5.93389 9.41783 6.05623 9.50614 6.157L19.003 16.6008C19.0733 16.6775 19.1587 16.7389 19.2539 16.7808C19.3492 16.8228 19.4521 16.8445 19.5561 16.8445C19.7414 16.842 19.9202 16.7758 20.0624 16.657C22.1999 14.7351 23.1468 12.6351 23.1843 12.5508C23.2258 12.4545 23.2472 12.3509 23.2472 12.2461C23.2472 12.1413 23.2258 12.0376 23.1843 11.9414Z" fill="#353F47"/>
<path d="M5.05314 3.48513C4.91764 3.34337 4.73201 3.26032 4.53602 3.25378C4.34003 3.24723 4.14927 3.3177 4.00461 3.4501C3.85996 3.5825 3.77291 3.76629 3.76212 3.96209C3.75133 4.1579 3.81766 4.35014 3.94689 4.49763L5.74689 6.47575C2.34377 8.56638 0.881269 11.7914 0.815644 11.9414C0.77411 12.0376 0.752686 12.1413 0.752686 12.2461C0.752686 12.3509 0.77411 12.4545 0.815644 12.5508C0.843769 12.6164 1.64064 14.3789 3.40314 16.1508C5.75627 18.4945 8.72814 19.7414 12 19.7414C13.6814 19.7528 15.3461 19.4077 16.8844 18.7289L18.9469 20.9976C19.0171 21.0744 19.1026 21.1357 19.1978 21.1777C19.293 21.2197 19.396 21.2413 19.5 21.2414C19.6871 21.2395 19.8671 21.1695 20.0063 21.0445C20.08 20.9787 20.1398 20.8988 20.1822 20.8095C20.2246 20.7203 20.2486 20.6234 20.253 20.5247C20.2574 20.426 20.2419 20.3274 20.2076 20.2347C20.1733 20.142 20.1208 20.0572 20.0531 19.9851L5.05314 3.48513ZM12 15.6164C11.3833 15.616 10.7784 15.4466 10.2511 15.1266C9.72389 14.8066 9.2944 14.3482 9.00934 13.8013C8.72428 13.2543 8.59454 12.6398 8.63422 12.0243C8.67389 11.4088 8.88147 10.8159 9.23439 10.3101L13.6594 15.1758C13.1545 15.4656 12.5822 15.6176 12 15.6164Z" fill="#353F47"/>
</svg>
