<svg width="33" height="32" viewBox="0 0 33 32" fill="none" xmlns="http://www.w3.org/2000/svg">
<path fill-rule="evenodd" clip-rule="evenodd" d="M17.9712 23.9331C17.9712 23.9331 18.5127 23.8769 18.79 23.5984C19.0438 23.3433 19.035 22.8618 19.035 22.8618C19.035 22.8618 19.0013 20.6136 20.1179 20.2816C21.2184 19.9552 22.6314 22.4558 24.131 23.4174C25.2637 24.1444 26.1236 23.9853 26.1236 23.9853L30.1308 23.9331C30.1308 23.9331 32.2261 23.8124 31.2327 22.272C31.1505 22.1458 30.6531 21.1321 28.2541 19.0498C25.7406 16.8702 26.0781 17.2227 29.1037 13.4519C30.9466 11.1556 31.6832 9.75374 31.4528 9.1543C31.2342 8.58092 29.8784 8.73318 29.8784 8.73318L25.3679 8.75925C25.3679 8.75925 25.0334 8.71672 24.7854 8.85527C24.5433 8.99106 24.3863 9.30793 24.3863 9.30793C24.3863 9.30793 23.6732 11.0843 22.7209 12.5959C20.7122 15.7838 19.9096 15.9525 19.5809 15.755C18.8164 15.2927 19.0072 13.9004 19.0072 12.9114C19.0072 9.82095 19.509 8.53291 18.0314 8.19959C17.5413 8.08848 17.1804 8.01578 15.9258 8.00343C14.3162 7.98834 12.9545 8.00892 12.1827 8.36145C11.6692 8.59601 11.273 9.12001 11.5151 9.15018C11.813 9.18722 12.4879 9.32028 12.846 9.77568C13.3082 10.3641 13.292 11.6837 13.292 11.6837C13.292 11.6837 13.5576 15.3215 12.6714 15.7728C12.0639 16.0828 11.2305 15.4505 9.43889 12.5575C8.52183 11.0761 7.82926 9.43824 7.82926 9.43824C7.82926 9.43824 7.69574 9.13235 7.45657 8.96775C7.16751 8.76885 6.764 8.70712 6.764 8.70712L2.47801 8.73318C2.47801 8.73318 1.83387 8.74964 1.59763 9.01164C1.38781 9.24346 1.58149 9.72493 1.58149 9.72493C1.58149 9.72493 4.93721 17.065 8.73752 20.7645C12.2224 24.1553 16.1782 23.9331 16.1782 23.9331H17.9712Z" fill="white"/>
</svg>
